<?xml version="1.0" encoding="UTF-8"?>
<svg width="32px" height="26px" viewBox="0 0 32 26" version="1.1" xmlns="http://www.w3.org/2000/svg" xmlns:xlink="http://www.w3.org/1999/xlink">
    <!-- Generator: Sketch 42 (36781) - http://www.bohemiancoding.com/sketch -->
    <title>football</title>
    <desc>Created with Sketch.</desc>
    <defs></defs>
    <g id="Page-1" stroke="none" stroke-width="1" fill="none" fill-rule="evenodd">
        <g id="Artboard-1" transform="translate(-446.000000, -4036.000000)">
            <g id="SPORT" transform="translate(138.000000, 3963.000000)">
                <g id="football" transform="translate(308.000000, 73.000000)">
                    <path d="M2,0 L30,0 C31.105,0 32,0.896 32,2 L32,24 C32,25.105 31.105,26 30,26 L2,26 C0.896,26 0,25.105 0,24 L0,2 C0,0.896 0.896,0 2,0" id="Fill-73" fill="#51BBA8"></path>
                    <path d="M29,2 L3,2 C2.46,2 2,2.49 2,3.001 L2,23 C2,23.424 2.408,24 3,24 L29,24 C29.494,24 30,23.544 30,23 L30,3.001 C30,2.493 29.515,2 29,2 L29,2 Z M15,15.824 C13.833,15.411 12.993,14.309 12.993,13 C12.993,11.691 13.833,10.59 15,10.177 L15,15.824 L15,15.824 Z M17,10.177 C18.167,10.59 19.008,11.691 19.008,13 C19.008,14.309 18.167,15.411 17,15.824 L17,10.177 L17,10.177 Z M5,22 C4.448,22 4,21.553 4,21 L4,5 C4,4.448 4.448,4 5,4 L15,4 L15,8.101 C12.718,8.565 11,10.582 11,13 C11,15.419 12.718,17.436 15,17.9 L15,22 L5,22 L5,22 Z M28,21 C28,21.553 27.553,22 27,22 L17,22 L17,17.9 C19.282,17.436 21,15.419 21,13 C21,10.582 19.282,8.565 17,8.101 L17,4 L27,4 C27.553,4 28,4.448 28,5 L28,21 L28,21 Z" id="Fill-72" fill="#E4E7E7"></path>
                </g>
            </g>
        </g>
    </g>
</svg>