<?xml version="1.0" encoding="UTF-8"?>
<svg width="32px" height="32px" viewBox="0 0 32 32" version="1.1" xmlns="http://www.w3.org/2000/svg" xmlns:xlink="http://www.w3.org/1999/xlink">
    <!-- Generator: Sketch 42 (36781) - http://www.bohemiancoding.com/sketch -->
    <title>github</title>
    <desc>Created with Sketch.</desc>
    <defs></defs>
    <g id="Page-1" stroke="none" stroke-width="1" fill="none" fill-rule="evenodd">
        <g id="Artboard-1" transform="translate(-292.000000, -4495.000000)" fill="#2B414D">
            <g id="LOGOTYPES" transform="translate(138.000000, 4195.000000)">
                <g id="github" transform="translate(154.000000, 300.000000)">
                    <path d="M16,0 C7.163,0 0,7.164 0,16 C0,24.837 7.163,32 16,32 C24.836,32 32,24.837 32,16 C32,7.164 24.836,0 16,0 L16,0 Z M20.482,28.19 C20.391,26.938 20.287,25.387 20.281,24.759 C20.241,24.277 20.19,23.051 19.026,22.268 C23.647,21.881 25.846,19.326 26.003,15.951 C26.135,14.03 25.371,12.339 24.014,10.976 C24.083,9.517 23.97,7.788 23.876,7.027 C22.834,6.728 20.404,8.011 19.725,8.56 C18.293,8.004 14.788,7.809 12.657,8.56 C11.147,7.498 9.428,6.842 8.491,7.025 C7.627,8.942 8.182,10.754 8.352,10.97 C7.237,11.988 5.683,13.241 6.105,15.865 C6.783,19.714 9.49,21.79 13.851,22.298 C12.921,22.489 12.764,23.182 12.686,23.483 C9.757,24.691 8.921,22.736 8.55,22.228 C7.321,20.706 6.219,21.148 6.15,21.172 C6.084,21.196 6.034,21.292 6.041,21.338 C6.103,21.666 6.772,21.999 6.805,22.027 C7.711,22.702 8.047,23.924 8.254,24.272 C9.555,26.41 12.58,25.524 12.608,25.541 C12.611,25.728 12.588,27.302 12.57,28.528 C7.057,27.021 3,21.991 3,16 C3,8.82 8.82,3 16,3 C23.18,3 29,8.82 29,16 C29,21.603 25.45,26.363 20.482,28.19 L20.482,28.19 Z" id="Fill-255"></path>
                </g>
            </g>
        </g>
    </g>
</svg>