<?xml version="1.0" encoding="utf-8"?><!DOCTYPE svg PUBLIC "-//W3C//DTD SVG 1.1//EN" "http://www.w3.org/Graphics/SVG/1.1/DTD/svg11.dtd"><svg version="1.1" baseProfile="full" xmlns="http://www.w3.org/2000/svg" xmlns:xlink="http://www.w3.org/1999/xlink" xmlns:ev="http://www.w3.org/2001/xml-events"   height="61px"   width="62px" ><path fill="rgb( 80, 80, 112 )" d="M59.7950000000001,19.494 C60.5659999999998,20.743 60.9989999999998,22.173 60.9989999999998,23.677 C60.9989999999998,25.814 60.1669999999999,27.823 58.6559999999999,29.334 C58.6559999999999,29.334 29.4050000000002,58.584 29.4050000000002,58.584 C27.8939999999998,60.095 25.886,60.927 23.748,60.927 C21.6109999999999,60.927 19.6019999999999,60.095 18.0920000000001,58.584 C18.0920000000001,58.584 17.9479999999999,58.441 17.9479999999999,58.441 C17.9479999999999,58.441 17.2049999999999,59.184 17.2049999999999,59.184 C17.0100000000002,59.379 16.7539999999999,59.477 16.498,59.477 C16.2420000000002,59.477 15.9870000000001,59.379 15.7910000000002,59.184 C15.4009999999998,58.793 15.4009999999998,58.16 15.7910000000002,57.77 C15.7910000000002,57.77 16.5340000000001,57.027 16.5340000000001,57.027 C16.5340000000001,57.027 15.0479999999998,55.541 15.0479999999998,55.541 C15.0479999999998,55.541 14.3049999999998,56.284 14.3049999999998,56.284 C14.1109999999999,56.479 13.8539999999998,56.577 13.5990000000002,56.577 C13.3429999999998,56.577 13.087,56.479 12.8910000000001,56.284 C12.5010000000002,55.894 12.5010000000002,55.261 12.8910000000001,54.87 C12.8910000000001,54.87 13.634,54.127 13.634,54.127 C13.634,54.127 12.1480000000001,52.641 12.1480000000001,52.641 C12.1480000000001,52.641 11.4059999999999,53.384 11.4059999999999,53.384 C11.2109999999998,53.58 10.9540000000002,53.677 10.6990000000001,53.677 C10.4430000000002,53.677 10.1869999999999,53.58 9.99200000000019,53.384 C9.60100000000011,52.994 9.60100000000011,52.361 9.99200000000019,51.97 C9.99200000000019,51.97 10.7339999999999,51.227 10.7339999999999,51.227 C10.7339999999999,51.227 9.24800000000005,49.741 9.24800000000005,49.741 C9.24800000000005,49.741 8.50500000000011,50.484 8.50500000000011,50.484 C8.30999999999995,50.68 8.05400000000009,50.777 7.79799999999977,50.777 C7.54199999999992,50.777 7.28600000000006,50.68 7.09099999999989,50.484 C6.69999999999982,50.094 6.69999999999982,49.461 7.09099999999989,49.07 C7.09099999999989,49.07 7.83399999999983,48.327 7.83399999999983,48.327 C7.83399999999983,48.327 6.34799999999996,46.841 6.34799999999996,46.841 C6.34799999999996,46.841 5.60500000000002,47.584 5.60500000000002,47.584 C5.40999999999985,47.779 5.154,47.877 4.89800000000014,47.877 C4.64199999999983,47.877 4.38599999999997,47.779 4.1909999999998,47.584 C3.80099999999993,47.193 3.80099999999993,46.56 4.1909999999998,46.17 C4.1909999999998,46.17 4.9340000000002,45.427 4.9340000000002,45.427 C4.9340000000002,45.427 4.19200000000001,44.684 4.19200000000001,44.684 C4.19200000000001,44.684 4.1909999999998,44.684 4.1909999999998,44.684 C4.1909999999998,44.684 4.1909999999998,44.684 4.1909999999998,44.683 C4.1909999999998,44.683 3.44799999999987,43.941 3.44799999999987,43.941 C3.44799999999987,43.941 2.70499999999993,44.684 2.70499999999993,44.684 C2.51000000000022,44.879 2.25399999999991,44.977 1.99800000000005,44.977 C1.74200000000019,44.977 1.48700000000008,44.879 1.29100000000017,44.684 C0.90099999999984,44.293 0.90099999999984,43.66 1.29100000000017,43.27 C1.29100000000017,43.27 2.20200000000023,42.36 2.20200000000023,42.36 C1.43100000000004,41.111 0.99800000000005,39.681 0.99800000000005,38.177 C0.99800000000005,36.04 1.82999999999993,34.031 3.34099999999989,32.52 C3.34099999999989,32.52 17.9650000000001,17.897 17.9650000000001,17.897 C17.9650000000001,17.896 17.9659999999999,17.895 17.9659999999999,17.895 C17.9670000000001,17.894 17.9670000000001,17.894 17.9679999999998,17.894 C17.9679999999998,17.894 32.5920000000001,3.26999999999998 32.5920000000001,3.26999999999998 C34.1019999999999,1.75900000000001 36.1109999999999,0.92700000000002 38.248,0.92700000000002 C40.386,0.92700000000002 42.3939999999998,1.75900000000001 43.9050000000002,3.26999999999998 C43.9050000000002,3.26999999999998 44.0479999999998,3.41300000000001 44.0479999999998,3.41300000000001 C44.0479999999998,3.41300000000001 44.7910000000002,2.67000000000002 44.7910000000002,2.67000000000002 C45.1819999999998,2.279 45.8150000000001,2.279 46.2049999999999,2.67000000000002 C46.596,3.06 46.596,3.69299999999998 46.2049999999999,4.084 C46.2049999999999,4.084 45.462,4.827 45.462,4.827 C45.462,4.827 46.9479999999999,6.31299999999999 46.9479999999999,6.31299999999999 C46.9479999999999,6.31299999999999 47.6909999999998,5.56999999999999 47.6909999999998,5.56999999999999 C48.0819999999999,5.18000000000001 48.7150000000001,5.18000000000001 49.105,5.56999999999999 C49.4960000000001,5.96100000000001 49.4960000000001,6.59399999999999 49.105,6.98399999999998 C49.105,6.98399999999998 48.3620000000001,7.72699999999998 48.3620000000001,7.72699999999998 C48.3620000000001,7.72699999999998 49.848,9.21300000000002 49.848,9.21300000000002 C49.848,9.21300000000002 50.5909999999999,8.47000000000003 50.5909999999999,8.47000000000003 C50.982,8.07900000000001 51.6149999999998,8.07900000000001 52.0050000000001,8.47000000000003 C52.3960000000002,8.86099999999999 52.3960000000002,9.49400000000003 52.0050000000001,9.88400000000001 C52.0050000000001,9.88400000000001 51.2620000000002,10.627 51.2620000000002,10.627 C51.2620000000002,10.627 52.748,12.113 52.748,12.113 C52.748,12.113 53.4920000000002,11.37 53.4920000000002,11.37 C53.8820000000001,10.979 54.5149999999999,10.979 54.9050000000002,11.37 C55.2959999999998,11.761 55.2959999999998,12.394 54.9050000000002,12.784 C54.9050000000002,12.784 54.1619999999998,13.527 54.1619999999998,13.527 C54.1619999999998,13.527 55.6480000000001,15.013 55.6480000000001,15.013 C55.6480000000001,15.013 56.3919999999998,14.27 56.3919999999998,14.27 C56.7820000000002,13.879 57.415,13.879 57.806,14.27 C58.1959999999999,14.661 58.1959999999999,15.293 57.806,15.684 C57.806,15.684 57.0619999999999,16.427 57.0619999999999,16.427 C57.0619999999999,16.427 57.8040000000001,17.169 57.8040000000001,17.169 C57.8040000000001,17.169 57.8049999999998,17.169 57.806,17.17 C57.806,17.17 57.806,17.171 57.8069999999998,17.171 C57.8069999999998,17.171 58.5479999999998,17.913 58.5479999999998,17.913 C58.5479999999998,17.913 59.2910000000002,17.17 59.2910000000002,17.17 C59.6819999999998,16.779 60.3150000000001,16.779 60.7049999999999,17.17 C61.096,17.56 61.096,18.193 60.7049999999999,18.584 C60.7049999999999,18.584 59.7950000000001,19.494 59.7950000000001,19.494 ZM7.05499999999984,44.72 C7.05499999999984,44.72 7.05499999999984,44.72 7.05499999999984,44.72 C7.05499999999984,44.72 7.05499999999984,44.72 7.05499999999984,44.72 C7.05499999999984,44.72 12.855,50.52 12.855,50.52 C12.855,50.52 12.855,50.52 12.855,50.52 C12.855,50.52 12.855,50.52 12.855,50.52 C12.855,50.52 15.7550000000001,53.419 15.7550000000001,53.419 C15.7550000000001,53.42 15.7550000000001,53.42 15.7550000000001,53.42 C15.7550000000001,53.42 15.7550000000001,53.42 15.7559999999999,53.42 C15.7559999999999,53.42 17.9490000000001,55.613 17.9490000000001,55.613 C17.9490000000001,55.613 22.3339999999998,51.227 22.3339999999998,51.227 C22.3339999999998,51.227 13.6170000000002,42.509 13.6170000000002,42.509 C13.6170000000002,42.509 13.6170000000002,42.509 13.6170000000002,42.509 C13.616,42.509 13.616,42.509 13.616,42.509 C13.616,42.509 10.6990000000001,39.591 10.6990000000001,39.591 C10.6990000000001,39.591 6.3119999999999,43.977 6.3119999999999,43.977 C6.3119999999999,43.977 7.05499999999984,44.72 7.05499999999984,44.72 ZM19.4160000000002,42.509 C18.4560000000001,41.549 17.0219999999999,41.364 15.8649999999998,41.93 C15.8649999999998,41.93 19.9960000000001,46.061 19.9960000000001,46.061 C20.5610000000001,44.903 20.377,43.469 19.4160000000002,42.509 ZM4.75500000000011,33.935 C3.62199999999984,35.068 2.99800000000005,36.574 2.99800000000005,38.177 C2.99800000000005,39.78 3.62199999999984,41.287 4.75500000000011,42.42 C4.75500000000011,42.42 4.89800000000014,42.563 4.89800000000014,42.563 C4.89800000000014,42.563 9.99200000000019,37.47 9.99200000000019,37.47 C10.3820000000001,37.08 11.0149999999999,37.08 11.4059999999999,37.47 C11.4059999999999,37.47 14.395,40.459 14.395,40.459 C16.3760000000002,39.138 19.0839999999998,39.348 20.8299999999999,41.095 C22.5770000000002,42.842 22.7869999999998,45.55 21.4659999999999,47.531 C21.4659999999999,47.531 24.4549999999999,50.52 24.4549999999999,50.52 C24.846,50.911 24.846,51.543 24.4549999999999,51.934 C24.4549999999999,51.934 19.3629999999998,57.027 19.3629999999998,57.027 C19.3629999999998,57.027 19.5059999999999,57.17 19.5059999999999,57.17 C20.6390000000001,58.303 22.1460000000002,58.927 23.748,58.927 C25.3510000000001,58.927 26.8580000000002,58.303 27.991,57.17 C27.991,57.17 41.9090000000001,43.252 41.9090000000001,43.252 C41.9090000000001,43.252 36.0050000000001,37.347 36.0050000000001,37.347 C34.5740000000001,38.466 32.8429999999998,39.104 30.998,39.104 C28.8139999999999,39.104 26.761,38.254 25.2159999999999,36.709 C22.27,33.763 22.0819999999999,29.129 24.5810000000001,25.923 C24.5810000000001,25.923 18.6729999999998,20.016 18.6729999999998,20.016 C18.6729999999998,20.016 4.75500000000011,33.935 4.75500000000011,33.935 ZM36.002,34.516 C37.7330000000002,32.104 37.5329999999999,28.726 35.3670000000002,26.559 C34.1999999999998,25.392 32.6480000000001,24.75 30.998,24.75 C29.6880000000001,24.75 28.4490000000001,25.17 27.4059999999999,25.921 C27.4059999999999,25.921 36.002,34.516 36.002,34.516 ZM25.9949999999999,27.338 C24.2640000000001,29.75 24.4639999999999,33.128 26.6300000000001,35.295 C27.797,36.462 29.348,37.104 30.998,37.104 C32.3090000000002,37.104 33.5479999999998,36.684 34.5900000000001,35.933 C34.5900000000001,35.933 25.9949999999999,27.338 25.9949999999999,27.338 ZM54.9409999999998,17.134 C54.9409999999998,17.134 54.9409999999998,17.134 54.9409999999998,17.134 C54.9409999999998,17.134 54.9409999999998,17.134 54.9409999999998,17.134 C54.9409999999998,17.134 44.0479999999998,6.24099999999999 44.0479999999998,6.24099999999999 C44.0479999999998,6.24099999999999 39.6619999999998,10.627 39.6619999999998,10.627 C39.6619999999998,10.627 42.5799999999999,13.545 42.5799999999999,13.545 C42.5799999999999,13.545 42.5799999999999,13.545 42.5799999999999,13.545 C42.5810000000001,13.545 42.5810000000001,13.545 42.5810000000001,13.545 C42.5810000000001,13.545 51.2979999999998,22.263 51.2979999999998,22.263 C51.2979999999998,22.263 55.6840000000002,17.877 55.6840000000002,17.877 C55.6840000000002,17.877 54.9409999999998,17.134 54.9409999999998,17.134 ZM42.5799999999999,19.345 C43.5410000000002,20.305 44.9749999999999,20.49 46.1320000000001,19.925 C46.1320000000001,19.925 42.0010000000002,15.793 42.0010000000002,15.793 C41.4349999999999,16.951 41.6199999999999,18.384 42.5799999999999,19.345 ZM57.241,19.435 C57.241,19.435 57.098,19.291 57.098,19.291 C57.098,19.291 52.0050000000001,24.384 52.0050000000001,24.384 C51.8180000000002,24.572 51.5630000000001,24.677 51.2979999999998,24.677 C51.0329999999999,24.677 50.779,24.572 50.5909999999999,24.384 C50.5909999999999,24.384 47.6019999999999,21.395 47.6019999999999,21.395 C46.7489999999998,21.964 45.761,22.251 44.7730000000001,22.251 C43.4670000000001,22.251 42.1599999999999,21.754 41.1660000000002,20.759 C39.4189999999999,19.013 39.2089999999998,16.304 40.5309999999999,14.323 C40.5309999999999,14.323 37.5410000000002,11.334 37.5410000000002,11.334 C37.1509999999998,10.943 37.1509999999998,10.31 37.5410000000002,9.92000000000002 C37.5410000000002,9.92000000000002 42.634,4.827 42.634,4.827 C42.634,4.827 42.491,4.68400000000003 42.491,4.68400000000003 C41.3580000000002,3.55099999999999 39.8510000000001,2.92700000000002 38.248,2.92700000000002 C36.6460000000002,2.92700000000002 35.1390000000001,3.55099999999999 34.0059999999999,4.68400000000003 C34.0059999999999,4.68400000000003 20.087,18.602 20.087,18.602 C20.087,18.602 25.9920000000002,24.507 25.9920000000002,24.507 C27.4229999999998,23.388 29.154,22.75 30.998,22.75 C33.1819999999998,22.75 35.2359999999999,23.601 36.7809999999999,25.145 C39.7269999999999,28.091 39.915,32.725 37.4160000000002,35.931 C37.4160000000002,35.931 43.3240000000001,41.838 43.3240000000001,41.838 C43.3240000000001,41.838 57.241,27.92 57.241,27.92 C58.375,26.787 58.9989999999998,25.28 58.9989999999998,23.677 C58.9989999999998,22.074 58.375,20.568 57.241,19.435 Z "/></svg>