<?xml version="1.0" encoding="utf-8"?><!DOCTYPE svg PUBLIC "-//W3C//DTD SVG 1.1//EN" "http://www.w3.org/Graphics/SVG/1.1/DTD/svg11.dtd"><svg version="1.1" baseProfile="full" xmlns="http://www.w3.org/2000/svg" xmlns:xlink="http://www.w3.org/1999/xlink" xmlns:ev="http://www.w3.org/2001/xml-events"   height="60px"   width="61px" ><path fill="rgb( 80, 80, 112 )" d="M60.9079999999999,28.208 C60.9490000000001,28.36 60.9630000000002,28.515 60.931,28.67 C60.951,29.114 60.998,29.551 60.998,30 C60.998,37.086 58.5149999999999,43.596 54.3910000000001,48.735 C54.3400000000001,48.828 54.2809999999999,48.914 54.203,48.987 C50.9810000000002,52.916 46.7759999999998,55.995 41.9760000000001,57.891 C41.848,57.98 41.6970000000001,58.028 41.5419999999999,58.05 C38.2559999999999,59.29 34.7130000000002,60 30.998,60 C27.2840000000001,60 23.741,59.29 20.4549999999999,58.05 C20.299,58.028 20.1489999999999,57.98 20.0210000000002,57.891 C15.221,55.995 11.0149999999999,52.916 7.79399999999987,48.987 C7.71599999999989,48.914 7.65700000000015,48.828 7.60500000000002,48.735 C3.48100000000022,43.596 0.99800000000005,37.086 0.99800000000005,30 C0.99800000000005,29.551 1.04599999999982,29.114 1.0659999999998,28.67 C1.03400000000011,28.515 1.04700000000003,28.36 1.08899999999994,28.208 C1.40200000000004,22.946 3.0619999999999,18.05 5.7510000000002,13.859 C5.79199999999992,13.753 5.85100000000011,13.661 5.92500000000018,13.574 C9.88599999999997,7.548 15.9580000000001,3.04899999999998 23.0810000000001,1.09500000000003 C23.1970000000001,1.04000000000002 23.3180000000002,1.00900000000001 23.4459999999999,1.00099999999998 C25.864,0.37 28.386,0 30.998,0 C33.6109999999999,0 36.1329999999998,0.37 38.5509999999999,1.00099999999998 C38.6790000000001,1.00900000000001 38.8000000000002,1.04000000000002 38.9169999999999,1.09500000000003 C46.04,3.05000000000001 52.1109999999999,7.548 56.0720000000001,13.575 C56.1460000000002,13.661 56.2040000000002,13.753 56.2449999999999,13.859 C58.9349999999999,18.05 60.5949999999998,22.946 60.9079999999999,28.208 ZM3.09000000000015,28.199 C3.09000000000015,28.199 4.68499999999995,30.28 4.68499999999995,30.28 C4.68499999999995,30.28 10.0210000000002,23.183 10.0210000000002,23.183 C10.0210000000002,23.183 9.875,14.307 9.875,14.307 C9.875,14.307 7.36299999999983,15.052 7.36299999999983,15.052 C4.91800000000012,18.904 3.39800000000014,23.385 3.09000000000015,28.199 ZM7.57600000000002,44.044 C7.57600000000002,44.044 3.79399999999987,32.405 3.79399999999987,32.405 C3.79399999999987,32.405 3.07200000000012,31.463 3.07200000000012,31.463 C3.33599999999979,36.529 4.93199999999979,41.241 7.54500000000007,45.247 C7.54500000000007,45.247 7.57600000000002,44.044 7.57600000000002,44.044 ZM5.80499999999984,32.119 C5.80499999999984,32.119 9.36999999999989,43.094 9.36999999999989,43.094 C9.36999999999989,43.094 18.232,45.813 18.232,45.813 C18.232,45.813 22.866,38.8 22.866,38.8 C22.866,38.8 18.866,26.492 18.866,26.492 C18.866,26.492 11.4279999999999,24.64 11.4279999999999,24.64 C11.4279999999999,24.64 5.80499999999984,32.119 5.80499999999984,32.119 ZM19.864,46.972 C19.864,46.972 25.2280000000001,54.616 25.2280000000001,54.616 C25.2280000000001,54.616 36.7689999999998,54.616 36.7689999999998,54.616 C36.7689999999998,54.616 42,47.161 42,47.161 C42,47.161 37.2689999999998,40 37.2689999999998,40 C37.2689999999998,40 24.4699999999998,40 24.4699999999998,40 C24.4699999999998,40 19.864,46.972 19.864,46.972 ZM12.0140000000001,22.725 C12.0140000000001,22.725 19.4349999999999,24.573 19.4349999999999,24.573 C19.4349999999999,24.573 29.9989999999998,16.9 29.9989999999998,16.9 C29.9989999999998,16.9 29.9989999999998,9.714 29.9989999999998,9.714 C29.9989999999998,9.714 21.1979999999999,6.69400000000002 21.1979999999999,6.69400000000002 C21.1979999999999,6.69400000000002 11.8609999999999,13.477 11.8609999999999,13.477 C11.8609999999999,13.477 12.0140000000001,22.725 12.0140000000001,22.725 ZM20.8209999999999,26.038 C20.8209999999999,26.038 24.7089999999998,38 24.7089999999998,38 C24.7089999999998,38 37.288,38 37.288,38 C37.288,38 41.1750000000002,26.04 41.1750000000002,26.04 C41.174,26.039 41.174,26.038 41.1729999999998,26.036 C41.1729999999998,26.036 30.9989999999998,18.645 30.9989999999998,18.645 C30.9989999999998,18.645 20.8209999999999,26.038 20.8209999999999,26.038 ZM31.9989999999998,16.9 C31.9989999999998,16.9 42.4989999999998,24.527 42.4989999999998,24.527 C42.4989999999998,24.527 49.9839999999999,22.721 49.9839999999999,22.721 C49.9839999999999,22.721 50.1350000000002,13.477 50.1350000000002,13.477 C50.1350000000002,13.477 40.799,6.69400000000002 40.799,6.69400000000002 C40.799,6.69400000000002 31.9989999999998,9.714 31.9989999999998,9.714 C31.9989999999998,9.714 31.9989999999998,16.9 31.9989999999998,16.9 ZM43.1529999999998,26.427 C43.1529999999998,26.427 39.0459999999998,39.061 39.0459999999998,39.061 C39.0459999999998,39.061 43.5509999999999,45.879 43.5509999999999,45.879 C43.5509999999999,45.879 52.6260000000002,43.094 52.6260000000002,43.094 C52.6260000000002,43.094 56.192,32.119 56.192,32.119 C56.192,32.119 50.567,24.638 50.567,24.638 C50.567,24.638 43.1529999999998,26.427 43.1529999999998,26.427 ZM54.4520000000002,45.247 C57.0650000000001,41.241 58.6610000000001,36.529 58.924,31.463 C58.924,31.463 58.2020000000002,32.405 58.2020000000002,32.405 C58.2020000000002,32.405 54.4209999999998,44.044 54.4209999999998,44.044 C54.4209999999998,44.044 54.4520000000002,45.247 54.4520000000002,45.247 ZM57.3119999999999,30.28 C57.3119999999999,30.28 58.9070000000002,28.199 58.9070000000002,28.199 C58.5990000000002,23.385 57.0790000000002,18.904 54.634,15.052 C54.634,15.052 52.1219999999998,14.307 52.1219999999998,14.307 C52.1219999999998,14.307 51.9760000000001,23.185 51.9760000000001,23.185 C51.9760000000001,23.185 57.3119999999999,30.28 57.3119999999999,30.28 ZM52.5189999999998,47.885 C52.5189999999998,47.885 52.451,45.24 52.451,45.24 C52.451,45.24 43.9630000000002,47.845 43.9630000000002,47.845 C43.9630000000002,47.845 38.8629999999998,55.112 38.8629999999998,55.112 C38.8629999999998,55.112 41.3519999999999,55.992 41.3519999999999,55.992 C45.7199999999998,54.246 49.5549999999998,51.446 52.5189999999998,47.885 ZM38.2449999999999,57.015 C38.2449999999999,57.015 37.116,56.616 37.116,56.616 C37.116,56.616 24.8800000000001,56.616 24.8800000000001,56.616 C24.8800000000001,56.616 23.752,57.015 23.752,57.015 C26.0680000000002,57.637 28.489,58 30.998,58 C33.5079999999998,58 35.9290000000001,57.637 38.2449999999999,57.015 ZM20.645,55.992 C20.645,55.992 23.1329999999998,55.112 23.1329999999998,55.112 C23.1329999999998,55.112 18.0329999999999,47.844 18.0329999999999,47.844 C18.0329999999999,47.844 9.54599999999982,45.24 9.54599999999982,45.24 C9.54599999999982,45.24 9.47699999999986,47.885 9.47699999999986,47.885 C12.442,51.446 16.2759999999998,54.246 20.645,55.992 ZM9.24400000000014,12.408 C9.24400000000014,12.408 10.4029999999998,12.064 10.4029999999998,12.064 C10.4029999999998,12.064 20.3040000000001,4.87099999999998 20.3040000000001,4.87099999999998 C20.3040000000001,4.87099999999998 20.9830000000002,3.88400000000001 20.9830000000002,3.88400000000001 C16.357,5.66399999999999 12.3139999999999,8.61900000000003 9.24400000000014,12.408 ZM24.0880000000002,2.89800000000002 C24.0880000000002,2.89800000000002 22.6010000000001,5.06 22.6010000000001,5.06 C22.6010000000001,5.06 30.9989999999998,7.94299999999998 30.9989999999998,7.94299999999998 C30.9989999999998,7.94299999999998 39.3960000000002,5.06 39.3960000000002,5.06 C39.3960000000002,5.06 37.9079999999999,2.89800000000002 37.9079999999999,2.89800000000002 C35.694,2.33300000000003 33.3870000000002,2 30.998,2 C28.6100000000001,2 26.3029999999999,2.33300000000003 24.0880000000002,2.89800000000002 ZM41.0140000000001,3.88299999999998 C41.0140000000001,3.88299999999998 41.692,4.87099999999998 41.692,4.87099999999998 C41.692,4.87099999999998 51.5929999999998,12.064 51.5929999999998,12.064 C51.5929999999998,12.064 52.7530000000002,12.408 52.7530000000002,12.408 C49.6819999999998,8.61799999999999 45.6399999999999,5.66399999999999 41.0140000000001,3.88299999999998 Z "/></svg>