<?xml version="1.0" encoding="utf-8"?>
<!-- Generator: Adobe Illustrator 16.0.3, SVG Export Plug-In . SVG Version: 6.00 Build 0)  -->
<!DOCTYPE svg PUBLIC "-//W3C//DTD SVG 1.1//EN" "http://www.w3.org/Graphics/SVG/1.1/DTD/svg11.dtd">
<svg version="1.1" id="Layer_1" xmlns="http://www.w3.org/2000/svg" xmlns:xlink="http://www.w3.org/1999/xlink" x="0px" y="0px"
	 width="80px" height="80px" viewBox="0 0 512 512" style="enable-background:new 0 0 512 512;" xml:space="preserve">
<style type="text/css">
<![CDATA[
	.st0{fill:#127274;}
	.st1{fill:#14B6B9;}
	.st2{fill:#EF4823;}
	.st3{fill:#BCBCBC;}
	.st4{fill:#F6851F;}
	.st5{fill:#C0E6ED;}
	.st6{fill:#C56528;}
	.st7{fill:#FCBF95;}
	.st8{fill:#FEBF10;}
	.st9{fill:#FFFFFF;}
	.st10{fill:#9FDADF;}
	.st11{fill:#010101;}
	.st12{fill:#3AB37C;}
	.st13{fill:#D6E5E5;}
	.st14{fill:#71C598;}
	.st15{fill:#74CCCF;}
]]>
</style>
<g>
	<g>
		<g>
			<path class="st13" d="M150.485,400.84c-2.017-2.711-4.871-3.42-7.662-3.674c-5.433-0.496-11.596,0.74-16.548,2.979
				c-1.521,0.688-3.393,1.765-3.953,2.909c0.527-0.73,1.821,1.586,2.921,2.469c0.34,0.273,0.631,0.561,0.878,0.859
				c0.309,0.088,0.621,0.197,0.938,0.346c5.79,2.713,14.367,3.594,20.378,1.113C150.023,406.773,152.649,403.747,150.485,400.84z"/>
		</g>
	</g>
	<g>
		<g>
			<path class="st13" d="M129.911,311.141c-2.828-0.052-11.342,0.445-11.9,2.564c-0.018,0.064-0.04,0.123-0.06,0.186
				c6.87,2.394,22.35,6.324,22.202,1.117C140.082,312.479,133.182,311.201,129.911,311.141z"/>
		</g>
	</g>
	<g>
		<g>
			<path class="st0" d="M169.128,460.08c-0.083-4.891-0.563-9.809-1-14.676c-5.694-63.611-12.173-127.312-21.099-190.578
				c-4.636-32.857-8.685-65.727-10.325-98.896c-1.603-32.343-5.425-64.604-5.569-97.013c-2.895,0.213-5.79,0.467-8.688,0.815
				c-12.81,1.538-25.61,3.538-38.529,3.481c0.715,0.807,1.179,1.82,1.179,3.018c0,22.889-0.147,45.865-0.045,68.854
				c1.158-2.926,3.17-5.236,5.566-7.152c0.43-1.438,1.439-2.728,3.176-3.469c8.086-3.451,20.132-3.891,28.068,0.256
				c10.779,5.632,7.751,16.031,0.883,23.566c-7.401,8.119-23.189,11.797-32.422,4.737c-2.355-1.802-4.15-4.325-5.201-7.122
				c0.295,35.358,1.329,70.718,4.574,105.809c2.739,29.633,8.628,58.821,12.704,88.273c4.018,29.032,4.666,57.943,4.693,87.191
				c0.001,0.02,0.003,0.037,0.003,0.057v2c0,1.404-0.438,2.559-1.134,3.46c0.107,0.464,0.16,0.974,0.134,1.54
				c-0.269,5.734,0.287,12.293,4.641,16.572c3.582,3.521,8.093,5.741,12.902,7.088c-0.58-0.705-1.113-1.428-1.587-2.16
				c-0.633-0.979-0.909-1.964-0.923-2.9c-0.382-0.301-0.745-0.662-1.077-1.1c-9.352-12.344,11.4-18.416,19.886-18.436
				c5.857-0.015,13.24,0.729,17.619,5.158c4.981,5.039,4.898,11.492,1.982,17.648c-3.036,6.406-12.895,1.521-9.855-4.895
				c0.455-0.959,0.852-1.844,0.993-2.896c-0.077,0.246-0.225-1.139-0.076-0.991c-0.236-0.5-0.663-1.001-0.93-1.149
				c-2.567-1.427-5.641-1.979-8.886-1.906c-3.707,0.084-7.278,0.479-10.651,2.014c-0.149,0.068-0.276,0.131-0.404,0.193
				c0.354,0.686,0.524,1.367,0.548,2.025c0.319,0.305,0.62,0.66,0.894,1.082c2.188,3.389,7.359,7.704,11.622,5.885
				c4.477-1.911,7.562,2.356,6.989,6.129c0.306,0.022,0.61,0.045,0.915,0.066c6.479,0.455,12.955,0.978,19.431,1.49
				C169.528,462.379,169.149,461.361,169.128,460.08z M119.688,100.216c-3.526,2.425-9.038,3.252-13.152,3.8
				c-4.307,0.574-9.509,0.968-13.371-1.432c-7.527-4.678-7.131-13.757-2.361-19.633c-1.381-3.162-0.059-7.561,4.385-7.779
				c9.508-0.469,20.088-9.071,28.53-0.328C130.608,81.979,127.304,94.979,119.688,100.216z M92.128,189.08
				c-1.049-9.547,6.092-16.836,15.01-18.826c9.303-2.074,18.394,1.332,22.361,10.342c8.264,18.766-21.293,21.111-32.334,15.988
				c-1.818-0.844-2.731-2.236-2.96-3.733C93.117,192.046,92.316,190.799,92.128,189.08z M94.128,236.08
				c-0.663-19.908,34.037-27.638,41.857-9.16c7.5,17.719-24.267,22.664-34.82,16.664c-1.193-0.679-1.967-1.601-2.399-2.618
				C96.39,240.763,94.23,239.182,94.128,236.08z M104.133,284.836c-2.312-0.313-4.518-1.86-5.005-4.756
				c-1.677-9.932,7.109-17.811,15.631-20.909c7.538-2.741,19.544-3.819,24.426,4.313c12.146,20.24-19.746,35.57-34.203,22.305
				C104.649,285.484,104.367,285.164,104.133,284.836z M110.165,322.584c-2.906-1.591-3.383-4.607-2.426-7.011
				c-0.678-1.026-0.948-2.363-0.525-3.966c2.432-9.232,13.436-11.814,21.85-11.436c7.809,0.351,19.059,2.209,21.641,11.053
				c3,10.274-6.688,17.012-15.816,17.077C126.632,328.361,117.47,326.582,110.165,322.584z M148.436,349.129
				c5.992,6.721,4.772,19.857-4.782,22.83c-8.41,2.616-16.973-0.804-25.09-2.904c-2.567-0.664-3.88-2.604-4.154-4.673
				c-1.612-0.706-2.933-2.124-3.281-4.302C108.057,340.919,138.522,338.009,148.436,349.129z M155.813,415.729
				c-9.296,6.396-23.783,5.475-33.648,0.855c-0.948-0.443-1.643-1.039-2.129-1.717c-0.693-0.195-1.387-0.542-2.055-1.078
				c-8.738-7.015-8.135-17.313,1.848-22.663c7.494-4.017,19.365-6.986,27.756-4.258c6.445,2.096,12.141,5.453,14.033,12.413
				C163.217,405.162,160.89,412.236,155.813,415.729z"/>
		</g>
	</g>
	<g>
		<g>
			<path class="st13" d="M377.013,69.565c-2.473,0.627-4.926,1.52-7.403,2.298c-0.233,1.781-1.285,3.459-3.408,4.321
				c-1.484,0.604-3.01,2.617-1.737,4.172c0.68,0.828,3.678,0.406,4.691,0.301c3.538-0.369,10.193-0.622,11.934-4.292
				C383.122,72.083,382.507,68.175,377.013,69.565z"/>
		</g>
	</g>
	<g>
		<g>
			<path class="st13" d="M377.133,439.079c-0.001,0-0.003,0.001-0.005,0.001c-0.026-0.116-0.051-0.232-0.075-0.348
				c-1.151-1.637-1.255-3.299-0.717-4.714c-0.379-3.179-0.553-6.373-0.626-9.626c-0.334-14.848-4.989-28.567-6.984-43.168
				c-2.121-15.504-3.613-31.121-5.24-46.685c-2.139-20.467-4.22-40.975-7.029-61.373c-1.018,0.966-2.176,1.382-3.317,1.38
				c-0.39,0.341-0.775,0.691-1.206,0.982c-1.427,0.962-2.835,0.912-4.482,0.934c-3.691,0.051-7.385,0.155-11.07,0.381
				c-8.114,0.496-16.204,1.297-24.265,2.356c-15.647,2.058-31.283,4.562-46.835,7.255c-33.701,5.833-67.9,5.999-102,6
				c-0.097,0-0.188-0.01-0.281-0.014c3.628,29.938,6.783,59.931,10.194,89.893c1.858,16.322,3.545,32.591,4.643,48.986
				c0.623,9.304,2.104,18.57,2.261,27.912c0.034,2.037-0.854,3.556-2.135,4.521c4.446,0.337,8.894,0.661,13.344,0.935
				c15.98,0.981,32.193,1.164,48.038-1.468c16.223-2.694,32.317-6.209,48.357-9.808c15.689-3.519,31.463-7.991,47.414-10.073
				c13.971-1.824,28.005-2.998,42.04-4.152C377.148,439.151,377.141,439.115,377.133,439.079z"/>
		</g>
	</g>
	<g>
		<g>
			<path class="st13" d="M117.618,134.886c-1.479-1.03-3.858-1.426-5.671-1.66c-3.202-0.415-6.549-0.401-9.759,0.208
				c-2.821,1.387-6.054,3.19-7.025,5.814c-1.193,3.216,2.145,5.83,4.92,6.221c6.405,0.9,14.066-1.99,17.335-7.861
				c0.353-0.634,0.79-1.554,0.885-2.049C118.206,135.568,117.908,135.088,117.618,134.886z"/>
		</g>
	</g>
	<g>
		<g>
			<path class="st13" d="M140.71,356.873c-3.955-3.84-19.066-5.473-18.671,1.768c4.691,1.344,9.626,3.287,14.475,3.295
				c0.993,0.002,3.739,0.27,4.263-0.938C141.268,359.865,141.513,357.652,140.71,356.873z"/>
		</g>
	</g>
	<g>
		<g>
			<path class="st13" d="M258.366,57.029c-30.605,0.281-61.204,0.608-91.809,0.968c-8.177,0.096-16.316,0.087-24.449,0.351
				c0.047,9.403,0.363,18.801,0.914,28.188c0.292,4.98,0.641,9.957,1.006,14.933c39.275-0.173,78.27-2.655,117.39-6.071
				c14.095-1.231,28.228-2.1,42.264-3.912c11.528-1.487,25.024-2.75,35.357-8.658c0.029-9.301,0.076-18.601,0.085-27.9
				C312.217,56.043,285.295,56.781,258.366,57.029z"/>
		</g>
	</g>
	<g>
		<g>
			<path class="st13" d="M350.989,239.455c-2.923-15.293-5.961-30.471-7.729-45.957c-1.775-15.557-2.871-31.182-3.463-46.828
				c-0.637-16.834-0.78-33.675-0.78-50.518c-1.32,0.734-2.637,0.74-3.783,0.271c-8.985,3.098-18.794,4.449-27.935,5.669
				c-14.277,1.904-28.639,2.873-42.985,4.098c-39.821,3.4-79.475,6.066-119.453,6.248c0.603,7.645,1.229,15.288,1.804,22.936
				c1.236,16.45,1.623,32.944,3.049,49.392c2.809,32.425,7.873,64.504,11.939,96.772c0.249-0.031,0.506-0.053,0.779-0.053
				c32.062,0,64.368,0.057,96.115-5.02c29.242-4.677,58.606-10.617,88.314-10.954c1.391-1.112,2.893-2.095,4.607-2.561
				c1.238-0.337,2.443-0.3,3.522,0.044C353.803,255.125,352.482,247.275,350.989,239.455z"/>
		</g>
	</g>
	<g>
		<g>
			<path class="st13" d="M111.241,82.229c-2.473,0.627-4.927,1.52-7.403,2.298c-0.233,1.781-1.285,3.459-3.407,4.321
				c-1.484,0.604-3.011,2.617-1.738,4.172c0.68,0.828,3.678,0.406,4.691,0.301c3.538-0.369,10.193-0.622,11.934-4.292
				C117.35,84.746,116.734,80.838,111.241,82.229z"/>
		</g>
	</g>
	<g>
		<g>
			<path class="st13" d="M110.314,180.771c-3.662,0.626-7.044,2.66-7.241,6.359c3.107,1.115,7.119,1.266,10.48,0.9
				c1.622-0.178,3.76-0.334,5.195-1.218c0.167-0.103,0.782-0.718,0.968-0.771c0.028-0.087,0.052-0.158,0.049-0.161
				C118.241,181.489,114.782,180.008,110.314,180.771z"/>
		</g>
	</g>
	<g>
		<g>
			<path class="st13" d="M130.06,269.56c-4.838-4.39-17.502,0.298-19.711,6.795c0.644,0.231,1.283,0.607,1.895,1.169
				c3.434,3.151,9.352,2.604,13.367,0.896C128.114,277.355,133.62,272.79,130.06,269.56z"/>
		</g>
	</g>
	<g>
		<g>
			<path class="st13" d="M125.906,231.275c-2.782-6.574-18.146-4.201-20.499,2.133c0.215,0.092,0.433,0.195,0.652,0.32
				c3.4,1.934,8.657,1.557,12.655,0.804c2.114-0.398,4.52-1.022,6.294-2.291c0.215-0.153,0.883-0.82,0.949-0.824
				C125.94,231.369,125.93,231.332,125.906,231.275z"/>
		</g>
	</g>
	<g>
		<g>
			<path class="st13" d="M382.299,119.953c-2.014-0.451-4.064-0.751-6.131-0.773c-2.354-0.025-4.712,0.045-7.053,0.299
				c0.166,1.126,0.243,2.279,0.236,3.453c-0.011,2.543-0.505,5.352,2.813,5.008c3.534-0.365,7.113-1.682,10.031-3.732
				c1.293-0.908,3.051-2.342,2.838-2.919C384.976,121.129,383.774,120.284,382.299,119.953z"/>
		</g>
	</g>
	<g>
		<g>
			<path class="st13" d="M416.257,388.177c-2.017-2.711-4.872-3.42-7.662-3.674c-5.433-0.496-11.596,0.74-16.548,2.979
				c-1.521,0.688-3.393,1.765-3.953,2.909c0.528-0.73,1.821,1.586,2.92,2.469c0.341,0.273,0.632,0.561,0.879,0.859
				c0.309,0.088,0.621,0.197,0.938,0.346c5.791,2.713,14.367,3.594,20.378,1.113C415.795,394.11,418.421,391.084,416.257,388.177z"
				/>
		</g>
	</g>
	<g>
		<g>
			<path class="st13" d="M406.481,344.21c-3.955-3.84-19.066-5.473-18.671,1.768c4.691,1.344,9.626,3.287,14.475,3.295
				c0.993,0.002,3.739,0.27,4.263-0.938C407.039,347.202,407.283,344.989,406.481,344.21z"/>
		</g>
	</g>
	<g>
		<g>
			<path class="st13" d="M395.682,298.478c-2.827-0.052-11.341,0.445-11.899,2.564c-0.018,0.064-0.04,0.123-0.059,0.186
				c6.869,2.394,22.349,6.324,22.201,1.117C405.854,299.815,398.954,298.538,395.682,298.478z"/>
		</g>
	</g>
	<g>
		<g>
			<path class="st13" d="M395.831,256.896c-4.838-4.39-17.502,0.298-19.711,6.795c0.644,0.231,1.283,0.607,1.894,1.169
				c3.434,3.151,9.353,2.604,13.367,0.896C393.885,264.692,399.392,260.127,395.831,256.896z"/>
		</g>
	</g>
	<g>
		<g>
			<path class="st0" d="M429.472,424.658c-0.133-4.352-0.393-10.426-3.49-13.869c-2.368-2.635-1.693-6.068,0.164-8.137
				c-0.168-1.408-0.266-2.836-0.355-4.271c-1.049,1.854-2.459,3.484-4.204,4.685c-9.296,6.396-23.785,5.475-33.649,0.855
				c-0.947-0.443-1.643-1.039-2.129-1.717c-0.582-0.164-1.162-0.442-1.729-0.841c1.158,5.137,2.183,10.326,2.402,15.555
				c0.251,5.947-0.043,12.1,0.961,18.004c0.395,1.021,0.609,2.093,0.654,3.311c0,0.011-0.001,0.021,0,0.032
				c7.368-0.654,14.726-1.412,22.092-2.093c4.426-0.41,9.354-0.154,13.605-1.582C428.513,433.004,429.615,429.418,429.472,424.658z"
				/>
		</g>
	</g>
	<g>
		<g>
			<path class="st13" d="M376.087,168.108c-3.663,0.626-7.045,2.66-7.242,6.359c3.106,1.115,7.119,1.266,10.48,0.9
				c1.622-0.178,3.761-0.334,5.195-1.218c0.167-0.103,0.782-0.718,0.969-0.771c0.027-0.087,0.051-0.158,0.049-0.161
				C384.013,168.826,380.554,167.345,376.087,168.108z"/>
		</g>
	</g>
	<g>
		<g>
			<path class="st0" d="M422.628,372.955c-1.934-15.801-3.967-31.57-5.686-47.397c-0.615-5.668-1.215-11.339-1.805-17.011
				c-2.928,4.436-8.811,7.051-14.479,7.092c-8.256,0.06-17.418-1.72-24.723-5.718c-2.906-1.591-3.383-4.607-2.426-7.011
				c-0.678-1.026-0.948-2.363-0.525-3.966c2.432-9.232,13.436-11.814,21.851-11.436c6.097,0.274,14.273,1.483,18.802,6.204
				c-2.031-20.729-3.779-41.484-4.932-62.277c-1.77-31.941-0.513-63.686-0.379-95.639c0.066-16.179-0.826-32.244-2.434-48.344
				c-0.753-7.538-1.506-15.119-2.88-22.574c-0.767-4.164-1.445-8.232-1.767-12.344c-0.427-0.188-0.852-0.429-1.266-0.746
				c-1.643-1.259-6.145-1.301-8.64-1.279c-4.919,0.044-9.825,0.451-14.709,1.031c-8.891,1.056-17.604,2.441-26.541,2.916
				c-0.004,4.17-0.012,8.34-0.027,12.508c-0.122,31.306-0.456,62.66,1.438,93.924c0.942,15.559,2.339,31.109,4.687,46.523
				c2.36,15.511,5.92,30.797,8.424,46.284c0.339,2.1,0.646,4.204,0.967,6.306c2.291-6.357,8.689-11.217,14.951-13.494
				c7.538-2.741,19.544-3.819,24.426,4.313c12.146,20.24-19.746,35.57-34.203,22.305c-0.332-0.305-0.613-0.625-0.848-0.953
				c-0.963-0.13-1.897-0.487-2.706-1.053c3.582,25.841,6.056,51.82,8.862,77.757c1.229,11.346,2.316,22.707,4.18,33.949
				c1.303-1.645,3.073-3.139,5.359-4.363c7.494-4.017,19.364-6.986,27.756-4.258c3.922,1.275,7.561,3.023,10.239,5.761
				C423.25,377.629,422.913,375.293,422.628,372.955z M360.96,62.509c9.508-0.469,20.088-9.071,28.53-0.328
				c6.89,7.136,3.585,20.135-4.03,25.372c-3.526,2.425-9.037,3.252-13.152,3.8c-4.307,0.574-9.509,0.968-13.371-1.432
				c-7.527-4.678-7.131-13.757-2.361-19.633C355.194,67.126,356.517,62.728,360.96,62.509z M360.692,110.595
				c0.542-0.483,1.236-0.874,2.102-1.13c10.203-3.012,34.777-2.803,33.047,13.023c-1.064,9.734-13.984,16.137-22.829,16.422
				c-5.525,0.177-10.87-1.699-13.315-7.061c-1.852-4.059,0.155-9.779-2.644-13.117C354.038,115.139,357.021,111.26,360.692,110.595z
				 M357.898,176.417c-1.049-9.547,6.093-16.836,15.011-18.826c9.303-2.074,18.395,1.332,22.361,10.342
				c8.264,18.766-21.293,21.111-32.334,15.988c-1.818-0.844-2.73-2.236-2.96-3.733C358.889,179.383,358.088,178.136,357.898,176.417
				z M366.937,230.921c-1.193-0.679-1.967-1.601-2.399-2.618c-2.376-0.203-4.535-1.784-4.639-4.886
				c-0.661-19.908,34.038-27.638,41.858-9.16C409.257,231.976,377.49,236.921,366.937,230.921z M409.425,359.296
				c-8.411,2.616-16.974-0.804-25.089-2.904c-2.568-0.664-3.881-2.604-4.155-4.673c-1.612-0.706-2.933-2.124-3.282-4.302
				c-3.07-19.161,27.396-22.071,37.309-10.951C420.199,343.187,418.979,356.323,409.425,359.296z"/>
		</g>
	</g>
	<g>
		<g>
			<path class="st13" d="M391.678,218.612c-2.782-6.574-18.146-4.201-20.499,2.133c0.215,0.092,0.433,0.195,0.652,0.32
				c3.399,1.934,8.658,1.557,12.655,0.804c2.114-0.398,4.521-1.022,6.294-2.291c0.215-0.153,0.883-0.82,0.949-0.824
				C391.712,218.706,391.701,218.669,391.678,218.612z"/>
		</g>
	</g>
	<g>
		<g>
			<path d="M123.719,74.844c-8.442-8.743-19.022-0.141-28.53,0.328c-4.443,0.219-5.766,4.617-4.385,7.779
				c-4.77,5.876-5.166,14.955,2.361,19.633c3.862,2.399,9.064,2.006,13.371,1.432c4.114-0.548,9.626-1.375,13.152-3.8
				C127.304,94.979,130.608,81.979,123.719,74.844z M115.317,89.028c-1.74,3.67-8.396,3.923-11.934,4.292
				c-1.014,0.105-4.012,0.527-4.691-0.301c-1.272-1.555,0.254-3.568,1.738-4.172c2.122-0.862,3.174-2.54,3.407-4.321
				c2.477-0.778,4.931-1.671,7.403-2.298C116.734,80.838,117.35,84.746,115.317,89.028z"/>
		</g>
	</g>
	<g>
		<g>
			<path d="M129.499,180.596c-3.968-9.01-13.059-12.416-22.361-10.342c-8.918,1.99-16.059,9.279-15.01,18.826
				c0.188,1.719,0.989,2.966,2.077,3.771c0.229,1.497,1.142,2.89,2.96,3.733C108.206,201.707,137.763,199.361,129.499,180.596z
				 M119.717,186.043c-0.186,0.053-0.801,0.668-0.968,0.771c-1.436,0.884-3.573,1.04-5.195,1.218
				c-3.361,0.365-7.373,0.215-10.48-0.9c0.197-3.699,3.579-5.733,7.241-6.359c4.468-0.764,7.927,0.718,9.451,5.11
				C119.769,185.885,119.745,185.956,119.717,186.043z"/>
		</g>
	</g>
	<g>
		<g>
			<path d="M135.985,226.92c-7.82-18.478-42.521-10.748-41.857,9.16c0.103,3.102,2.262,4.683,4.638,4.886
				c0.433,1.018,1.206,1.939,2.399,2.618C111.719,249.584,143.485,244.639,135.985,226.92z M125.009,232.241
				c-1.774,1.269-4.18,1.893-6.294,2.291c-3.998,0.753-9.255,1.13-12.655-0.804c-0.22-0.125-0.438-0.229-0.652-0.32
				c2.354-6.334,17.717-8.707,20.499-2.133c0.023,0.057,0.034,0.094,0.052,0.142C125.892,231.421,125.224,232.088,125.009,232.241z"
				/>
		</g>
	</g>
	<g>
		<g>
			<path d="M139.185,263.484c-4.882-8.133-16.888-7.055-24.426-4.313c-8.521,3.099-17.308,10.978-15.631,20.909
				c0.487,2.896,2.692,4.442,5.005,4.756c0.234,0.328,0.517,0.648,0.849,0.953C119.438,299.055,151.331,283.725,139.185,263.484z
				 M125.61,278.42c-4.016,1.707-9.934,2.255-13.367-0.896c-0.611-0.562-1.251-0.938-1.895-1.169
				c2.209-6.497,14.873-11.185,19.711-6.795C133.62,272.79,128.114,277.355,125.61,278.42z"/>
		</g>
	</g>
	<g>
		<g>
			<path d="M150.704,311.225c-2.582-8.844-13.832-10.702-21.641-11.053c-8.414-0.379-19.418,2.203-21.85,11.436
				c-0.423,1.603-0.152,2.939,0.525,3.966c-0.957,2.403-0.48,5.42,2.426,7.011c7.305,3.998,16.467,5.777,24.723,5.718
				C144.016,328.236,153.704,321.499,150.704,311.225z M117.951,313.891c0.02-0.062,0.042-0.121,0.06-0.186
				c0.559-2.119,9.072-2.616,11.9-2.564c3.271,0.061,10.171,1.338,10.242,3.867C140.301,320.215,124.821,316.284,117.951,313.891z"
				/>
		</g>
	</g>
	<g>
		<g>
			<path d="M148.436,349.129c-9.913-11.12-40.379-8.21-37.308,10.951c0.349,2.178,1.669,3.596,3.281,4.302
				c0.274,2.069,1.587,4.009,4.154,4.673c8.117,2.101,16.68,5.521,25.09,2.904C153.208,368.986,154.428,355.85,148.436,349.129z
				 M140.776,360.998c-0.523,1.207-3.27,0.939-4.263,0.938c-4.849-0.008-9.783-1.951-14.475-3.295
				c-0.396-7.24,14.716-5.607,18.671-1.768C141.513,357.652,141.268,359.865,140.776,360.998z"/>
		</g>
	</g>
	<g>
		<g>
			<path d="M161.618,399.281c-1.893-6.96-7.588-10.317-14.033-12.413c-8.391-2.729-20.262,0.241-27.756,4.258
				c-9.982,5.35-10.586,15.648-1.848,22.663c0.668,0.536,1.361,0.883,2.055,1.078c0.486,0.678,1.181,1.273,2.129,1.717
				c9.865,4.619,24.353,5.54,33.648-0.855C160.89,412.236,163.217,405.162,161.618,399.281z M147.438,407.842
				c-6.011,2.48-14.588,1.6-20.378-1.113c-0.317-0.148-0.63-0.258-0.938-0.346c-0.247-0.299-0.538-0.586-0.878-0.859
				c-1.1-0.883-2.394-3.199-2.921-2.469c0.561-1.145,2.432-2.222,3.953-2.909c4.952-2.239,11.115-3.476,16.548-2.979
				c2.791,0.254,5.646,0.963,7.662,3.674C152.649,403.747,150.023,406.773,147.438,407.842z"/>
		</g>
	</g>
	<g>
		<g>
			<path d="M389.49,62.181c-8.442-8.743-19.022-0.141-28.53,0.328c-4.443,0.219-5.766,4.617-4.385,7.779
				c-4.77,5.876-5.166,14.955,2.361,19.633c3.862,2.399,9.064,2.006,13.371,1.432c4.115-0.548,9.626-1.375,13.152-3.8
				C393.075,82.315,396.38,69.316,389.49,62.181z M381.089,76.365c-1.74,3.67-8.396,3.923-11.934,4.292
				c-1.014,0.105-4.012,0.527-4.691-0.301c-1.272-1.555,0.253-3.568,1.737-4.172c2.123-0.862,3.175-2.54,3.408-4.321
				c2.478-0.778,4.931-1.671,7.403-2.298C382.507,68.175,383.122,72.083,381.089,76.365z"/>
		</g>
	</g>
	<g>
		<g>
			<path d="M395.271,167.933c-3.967-9.01-13.059-12.416-22.361-10.342c-8.918,1.99-16.06,9.279-15.011,18.826
				c0.189,1.719,0.99,2.966,2.078,3.771c0.229,1.497,1.142,2.89,2.96,3.733C373.978,189.044,403.534,186.698,395.271,167.933z
				 M385.489,173.38c-0.187,0.053-0.802,0.668-0.969,0.771c-1.435,0.884-3.573,1.04-5.195,1.218c-3.361,0.365-7.374,0.215-10.48-0.9
				c0.197-3.699,3.579-5.733,7.242-6.359c4.467-0.764,7.926,0.718,9.451,5.11C385.54,173.222,385.517,173.293,385.489,173.38z"/>
		</g>
	</g>
	<g>
		<g>
			<path d="M401.757,214.257c-7.82-18.478-42.52-10.748-41.858,9.16c0.104,3.102,2.263,4.683,4.639,4.886
				c0.433,1.018,1.206,1.939,2.399,2.618C377.49,236.921,409.257,231.976,401.757,214.257z M390.78,219.578
				c-1.773,1.269-4.18,1.893-6.294,2.291c-3.997,0.753-9.256,1.13-12.655-0.804c-0.22-0.125-0.438-0.229-0.652-0.32
				c2.353-6.334,17.717-8.707,20.499-2.133c0.023,0.057,0.034,0.094,0.052,0.142C391.663,218.758,390.995,219.425,390.78,219.578z"
				/>
		</g>
	</g>
	<g>
		<g>
			<path d="M414.207,336.466c-9.913-11.12-40.379-8.21-37.309,10.951c0.35,2.178,1.67,3.596,3.282,4.302
				c0.274,2.069,1.587,4.009,4.155,4.673c8.115,2.101,16.678,5.521,25.089,2.904C418.979,356.323,420.199,343.187,414.207,336.466z
				 M406.548,348.335c-0.523,1.207-3.27,0.939-4.263,0.938c-4.849-0.008-9.783-1.951-14.475-3.295
				c-0.396-7.24,14.716-5.607,18.671-1.768C407.283,344.989,407.039,347.202,406.548,348.335z"/>
		</g>
	</g>
	<g>
		<g>
			<path d="M438.333,411.154c0.92-1.577,1.092-3.584-0.161-5.574c-2.562-4.068-1.428-10.716-2.075-15.348
				c-1.016-7.271-2.058-14.526-2.951-21.815c-1.864-15.206-3.787-30.388-5.441-45.621c-3.33-30.674-6.271-61.399-8.028-92.207
				c-1.785-31.274-0.674-62.384-0.393-93.675c0.141-15.58-0.677-31.004-2.062-46.519c-0.68-7.603-1.494-15.212-2.617-22.763
				c-1.079-7.262-3.204-14.518-2.594-21.928c0.484-5.857-7.018-8.33-9.801-4.816c-5.914-2.021-12.94-1.463-18.896-1.049
				c-8.873,0.616-17.621,2.234-26.444,3.26c-15.196,1.764-30.971,1.408-46.259,1.885c-15.738,0.49-31.482,0.816-47.228,1.012
				c-31.253,0.386-62.505,0.549-93.759,0.98c-15.42,0.213-30.797-0.133-46.146,1.568c-14.743,1.635-29.4,4.195-44.289,3.627
				c-5.666-0.218-6.207,6.78-2.592,9.709c-0.84,0.491-1.532,1.244-1.912,2.328c-0.136,0.387-0.789,1.4-1,2
				c-0.637,1.819-0.352,3.511,0.441,4.871c-0.023,59.818-0.5,119.957,4.437,179.608c2.451,29.63,8.382,58.851,12.601,88.25
				c4.351,30.331,4.963,60.551,4.965,91.142c0,0.604,0.085,1.146,0.23,1.635c-0.701,0.886-1.167,2.01-1.23,3.365
				c-0.439,9.35,2.257,18.004,9.003,24.634c6.077,5.973,14.978,8.685,23.106,10.333c8.687,1.761,17.611,2.118,26.428,2.774
				c14.857,1.105,29.705,2.45,44.588,3.168c16.009,0.772,32.02,0.196,47.783-2.849c15.789-3.049,31.52-6.253,47.213-9.773
				c16.146-3.621,32.197-7.805,48.641-9.805c16.411-1.997,32.921-3.105,49.39-4.51c8.958-0.766,17.892-1.75,26.852-2.469
				c5.979-0.479,12.688-1.635,17.058-6.139C441.97,433.457,442.071,420.86,438.333,411.154z M343.261,193.498
				c1.768,15.486,4.806,30.664,7.729,45.957c1.493,7.82,2.813,15.67,4.003,23.539c-1.079-0.344-2.284-0.381-3.522-0.044
				c-1.715,0.466-3.217,1.448-4.607,2.561c-29.708,0.337-59.072,6.277-88.314,10.954c-31.747,5.076-64.053,5.02-96.115,5.02
				c-0.273,0-0.53,0.021-0.779,0.053c-4.066-32.269-9.131-64.348-11.939-96.772c-1.426-16.447-1.812-32.941-3.049-49.392
				c-0.574-7.647-1.201-15.291-1.804-22.936c39.979-0.182,79.632-2.848,119.453-6.248c14.347-1.225,28.708-2.193,42.985-4.098
				c9.141-1.22,18.949-2.571,27.935-5.669c1.146,0.47,2.463,0.464,3.783-0.271c0,16.843,0.144,33.684,0.78,50.518
				C340.39,162.316,341.485,177.941,343.261,193.498z M166.558,57.997c30.604-0.359,61.203-0.687,91.809-0.968
				c26.929-0.248,53.851-0.986,80.758-2.104c-0.009,9.3-0.056,18.6-0.085,27.9c-10.333,5.908-23.829,7.171-35.357,8.658
				c-14.036,1.812-28.169,2.681-42.264,3.912c-39.12,3.416-78.114,5.898-117.39,6.071c-0.365-4.976-0.714-9.952-1.006-14.933
				c-0.551-9.387-0.867-18.784-0.914-28.188C150.241,58.084,158.381,58.093,166.558,57.997z M150.698,461.66
				c-0.305-0.021-0.609-0.044-0.915-0.066c0.573-3.772-2.513-8.04-6.989-6.129c-4.263,1.819-9.434-2.496-11.622-5.885
				c-0.273-0.422-0.574-0.777-0.894-1.082c-0.023-0.658-0.194-1.34-0.548-2.025c0.128-0.062,0.255-0.125,0.404-0.193
				c3.373-1.534,6.944-1.93,10.651-2.014c3.245-0.072,6.318,0.479,8.886,1.906c0.267,0.148,0.693,0.649,0.93,1.149
				c-0.148-0.147-0.001,1.237,0.076,0.991c-0.142,1.053-0.538,1.938-0.993,2.896c-3.039,6.415,6.819,11.301,9.855,4.895
				c2.916-6.156,2.999-12.609-1.982-17.648c-4.379-4.43-11.762-5.173-17.619-5.158c-8.485,0.02-29.237,6.092-19.886,18.436
				c0.332,0.438,0.695,0.799,1.077,1.1c0.014,0.937,0.29,1.921,0.923,2.9c0.474,0.732,1.007,1.455,1.587,2.16
				c-4.81-1.347-9.32-3.566-12.902-7.088c-4.354-4.279-4.909-10.838-4.641-16.572c0.026-0.566-0.026-1.076-0.134-1.54
				c0.695-0.901,1.134-2.056,1.134-3.46v-2c0-0.02-0.002-0.037-0.003-0.057c-0.027-29.248-0.676-58.159-4.693-87.191
				c-4.076-29.452-9.965-58.641-12.704-88.273c-3.245-35.091-4.279-70.45-4.574-105.809c1.051,2.797,2.846,5.32,5.201,7.122
				c9.232,7.06,25.021,3.382,32.422-4.737c6.868-7.535,9.896-17.935-0.883-23.566c-7.937-4.146-19.982-3.707-28.068-0.256
				c-1.736,0.741-2.746,2.031-3.176,3.469c-2.396,1.916-4.408,4.227-5.566,7.152c-0.103-22.988,0.045-45.965,0.045-68.854
				c0-1.197-0.464-2.211-1.179-3.018c12.919,0.057,25.72-1.943,38.529-3.481c2.897-0.349,5.793-0.603,8.688-0.815
				c0.145,32.409,3.967,64.67,5.569,97.013c1.641,33.169,5.689,66.038,10.325,98.896c8.926,63.267,15.404,126.967,21.099,190.578
				c0.437,4.867,0.917,9.785,1,14.676c0.021,1.281,0.4,2.299,1.001,3.07C163.653,462.638,157.178,462.115,150.698,461.66z
				 M95.163,139.248c0.972-2.624,4.204-4.428,7.025-5.814c3.21-0.609,6.557-0.623,9.759-0.208c1.812,0.234,4.192,0.63,5.671,1.66
				c0.29,0.202,0.588,0.683,0.685,0.673c-0.095,0.495-0.532,1.415-0.885,2.049c-3.269,5.871-10.93,8.762-17.335,7.861
				C97.308,145.078,93.97,142.464,95.163,139.248z M335.115,443.34c-15.951,2.082-31.725,6.555-47.414,10.073
				c-16.04,3.599-32.135,7.113-48.357,9.808c-15.845,2.632-32.058,2.449-48.038,1.468c-4.45-0.273-8.897-0.598-13.344-0.935
				c1.281-0.966,2.169-2.484,2.135-4.521c-0.156-9.342-1.638-18.608-2.261-27.912c-1.098-16.396-2.784-32.664-4.643-48.986
				c-3.411-29.962-6.566-59.955-10.194-89.893c0.094,0.004,0.185,0.014,0.281,0.014c34.1-0.001,68.299-0.167,102-6
				c15.552-2.692,31.188-5.197,46.835-7.255c8.061-1.06,16.15-1.86,24.265-2.356c3.686-0.226,7.379-0.33,11.07-0.381
				c1.647-0.021,3.056,0.028,4.482-0.934c0.431-0.291,0.816-0.642,1.206-0.982c1.142,0.002,2.3-0.414,3.317-1.38
				c2.81,20.398,4.891,40.906,7.029,61.373c1.627,15.563,3.119,31.181,5.24,46.685c1.995,14.601,6.65,28.32,6.984,43.168
				c0.073,3.253,0.247,6.447,0.626,9.626c-0.538,1.415-0.435,3.077,0.717,4.714c0.024,0.115,0.049,0.231,0.075,0.348
				c0.002,0,0.004-0.001,0.005-0.001c0.008,0.036,0.016,0.072,0.022,0.108C363.12,440.342,349.086,441.516,335.115,443.34z
				 M380.241,382.826c-1.863-11.242-2.951-22.604-4.18-33.949c-2.807-25.937-5.28-51.916-8.862-77.757
				c0.809,0.565,1.743,0.923,2.706,1.053c0.234,0.328,0.516,0.648,0.848,0.953c14.457,13.266,46.349-2.064,34.203-22.305
				c-4.882-8.133-16.888-7.055-24.426-4.313c-6.262,2.277-12.66,7.137-14.951,13.494c-0.321-2.102-0.628-4.206-0.967-6.306
				c-2.504-15.487-6.063-30.773-8.424-46.284c-2.348-15.414-3.744-30.965-4.687-46.523c-1.894-31.264-1.56-62.618-1.438-93.924
				c0.016-4.168,0.023-8.338,0.027-12.508c8.937-0.475,17.65-1.86,26.541-2.916c4.884-0.58,9.79-0.987,14.709-1.031
				c2.495-0.021,6.997,0.021,8.64,1.279c0.414,0.317,0.839,0.559,1.266,0.746c0.321,4.111,1,8.18,1.767,12.344
				c1.374,7.455,2.127,15.036,2.88,22.574c1.607,16.1,2.5,32.165,2.434,48.344c-0.134,31.953-1.391,63.697,0.379,95.639
				c1.152,20.793,2.9,41.549,4.932,62.277c-4.528-4.721-12.705-5.93-18.802-6.204c-8.415-0.379-19.419,2.203-21.851,11.436
				c-0.423,1.603-0.152,2.939,0.525,3.966c-0.957,2.403-0.48,5.42,2.426,7.011c7.305,3.998,16.467,5.777,24.723,5.718
				c5.668-0.041,11.551-2.656,14.479-7.092c0.59,5.672,1.189,11.343,1.805,17.011c1.719,15.827,3.752,31.597,5.686,47.397
				c0.285,2.338,0.622,4.674,0.968,7.011c-2.679-2.737-6.317-4.485-10.239-5.761c-8.392-2.729-20.262,0.241-27.756,4.258
				C383.314,379.688,381.544,381.182,380.241,382.826z M376.12,263.691c2.209-6.497,14.873-11.185,19.711-6.795
				c3.561,3.23-1.946,7.796-4.45,8.86c-4.015,1.707-9.934,2.255-13.367-0.896C377.403,264.299,376.764,263.923,376.12,263.691z
				 M405.925,302.345c0.147,5.207-15.332,1.276-22.201-1.117c0.019-0.062,0.041-0.121,0.059-0.186
				c0.559-2.119,9.072-2.616,11.899-2.564C398.954,298.538,405.854,299.815,405.925,302.345z M413.209,395.179
				c-6.011,2.48-14.587,1.6-20.378-1.113c-0.317-0.148-0.63-0.258-0.938-0.346c-0.247-0.299-0.538-0.586-0.879-0.859
				c-1.099-0.883-2.392-3.199-2.92-2.469c0.561-1.145,2.432-2.222,3.953-2.909c4.952-2.239,11.115-3.476,16.548-2.979
				c2.79,0.254,5.646,0.963,7.662,3.674C418.421,391.084,415.795,394.11,413.209,395.179z M423.794,434.59
				c-4.252,1.428-9.18,1.172-13.605,1.582c-7.366,0.681-14.724,1.438-22.092,2.093c-0.001-0.011,0-0.021,0-0.032
				c-0.045-1.218-0.26-2.289-0.654-3.311c-1.004-5.904-0.71-12.057-0.961-18.004c-0.22-5.229-1.244-10.418-2.402-15.555
				c0.566,0.398,1.146,0.677,1.729,0.841c0.486,0.678,1.182,1.273,2.129,1.717c9.864,4.619,24.354,5.54,33.649-0.855
				c1.745-1.2,3.155-2.831,4.204-4.685c0.09,1.436,0.188,2.863,0.355,4.271c-1.857,2.068-2.532,5.502-0.164,8.137
				c3.098,3.443,3.357,9.518,3.49,13.869C429.615,429.418,428.513,433.004,423.794,434.59z"/>
		</g>
	</g>
	<g>
		<g>
			<path d="M362.794,109.465c-0.865,0.256-1.56,0.646-2.102,1.13c-3.672,0.665-6.654,4.544-3.64,8.138
				c2.799,3.338,0.792,9.059,2.644,13.117c2.445,5.361,7.79,7.237,13.315,7.061c8.845-0.285,21.765-6.688,22.829-16.422
				C397.571,106.662,372.997,106.453,362.794,109.465z M382.196,124.207c-2.918,2.051-6.497,3.367-10.031,3.732
				c-3.318,0.344-2.824-2.465-2.813-5.008c0.007-1.174-0.07-2.327-0.236-3.453c2.341-0.254,4.699-0.324,7.053-0.299
				c2.066,0.022,4.117,0.322,6.131,0.773c1.476,0.331,2.677,1.176,2.735,1.335C385.247,121.865,383.489,123.299,382.196,124.207z"/>
		</g>
	</g>
</g>
</svg>
