<?xml version="1.0" standalone="no"?>
<!DOCTYPE svg PUBLIC "-//W3C//DTD SVG 20010904//EN"
 "http://www.w3.org/TR/2001/REC-SVG-20010904/DTD/svg10.dtd">
<svg version="1.0" xmlns="http://www.w3.org/2000/svg"
 width="16.000000pt" height="16.000000pt" viewBox="0 0 16.000000 16.000000"
 preserveAspectRatio="xMidYMid meet">
<metadata>
Created by potrace 1.11, written by Peter Selinger 2001-2013
</metadata>
<g transform="translate(0.000000,16.000000) scale(0.012214,-0.012214)"
fill="#000000" stroke="none">
<path d="M335 1156 c-69 -32 -118 -77 -136 -123 -5 -13 -11 -58 -14 -101 -9
-122 -16 -164 -31 -188 -18 -26 -81 -54 -124 -54 -25 0 -30 -4 -30 -24 0 -22
7 -26 54 -36 103 -21 121 -52 129 -216 8 -161 46 -210 203 -264 51 -18 52 -18
57 1 4 16 -5 24 -46 43 -29 13 -62 34 -74 47 -33 36 -53 103 -53 178 -1 123
-24 178 -95 217 l-37 22 47 28 c56 32 71 62 79 159 17 184 17 185 49 222 16
19 51 45 77 58 52 27 74 65 37 65 -12 -1 -54 -16 -92 -34z"/>
<path d="M867 1170 c3 -11 27 -29 58 -43 86 -40 111 -92 118 -248 6 -126 25
-163 106 -204 l34 -17 -49 -27 c-63 -34 -84 -76 -90 -179 -9 -142 -13 -161
-50 -202 -19 -20 -56 -47 -83 -59 -40 -17 -48 -24 -44 -41 3 -11 6 -20 7 -20
1 0 31 11 66 25 143 56 178 103 186 252 10 172 27 202 130 223 46 10 54 15 54
34 0 21 -6 24 -49 28 -59 6 -106 37 -119 81 -6 17 -13 77 -15 133 -4 76 -10
110 -26 142 -22 42 -79 88 -141 112 -19 7 -39 17 -44 22 -6 4 -20 8 -32 8 -17
0 -21 -4 -17 -20z"/>
</g>
</svg>
